<svg xmlns="http://www.w3.org/2000/svg" viewBox="0 0 120 24" width="120" height="24">
  <!-- Mini logo bouclier -->
  <g transform="translate(0, 0)">
    <path d="M3 1.5C3 0.7 3.5 0 4 0H16C16.5 0 17 0.7 17 1.5V15C17 16.5 10 21 10 21C10 21 3 16.5 3 15V1.5Z" fill="#2F4F4F"/>
    <circle cx="10" cy="9" r="2" fill="#F5F5DC"/>
    <ellipse cx="10" cy="4.5" rx="1.5" ry="2" fill="#F5F5DC"/>
    <ellipse cx="10" cy="13.5" rx="1.5" ry="2" fill="#F5F5DC"/>
    <ellipse cx="5.5" cy="9" rx="2" ry="1.5" fill="#F5F5DC"/>
    <ellipse cx="14.5" cy="9" rx="2" ry="1.5" fill="#F5F5DC"/>
    <rect x="9" y="6" width="2" height="2.5" fill="#F5F5DC"/>
    <rect x="9" y="10.5" width="2" height="2.5" fill="#F5F5DC"/>
    <rect x="7" y="8" width="2.5" height="2" fill="#F5F5DC"/>
    <rect x="10.5" y="8" width="2.5" height="2" fill="#F5F5DC"/>
  </g>
  <!-- Texte BAVINI -->
  <text x="24" y="17" fill="#2F4F4F" font-size="16" font-weight="700" font-family="system-ui, -apple-system, BlinkMacSystemFont, 'Segoe UI', sans-serif" letter-spacing="0.05em">BAVINI</text>
</svg>
